# xmcd
#
# Track frame offsets:
# 150
# 17785
# 33982
# 50005
# 61264
# 70617
# 73667
# 90275
# 107095
# 121367
# 132187
# 143240
#
# Disc length: 2097 seconds
#
#
# Revision: 0
# Processed by: cddbd v1.5.2PL0 Copyright (c) Steve Scherf et al.
# Submitted via: FreeRIP 2.96 
#
DISCID=a3082f0c
DTITLE=Nelson Nede - 
DYEAR=1900
DGENRE=Gospel
TTITLE0=Vencendo vem Jesus
TTITLE1=Só mesmo crendo em Deus
TTITLE2=Louvado seja o nome de Jesus
TTITLE3=não
TTITLE4=Ó meu Deus
TTITLE5=vc
TTITLE6=Em cada irmão vejo Cristo
TTITLE7=Segura na mão de Deus
TTITLE8=Só Jesus
TTITLE9=eu
TTITLE10=Jesus
TTITLE11=nós
EXTD=uma benção!!!!!!!!\n
EXTT0=
EXTT1=
EXTT2=
EXTT3=
EXTT4=
EXTT5=
EXTT6=
EXTT7=
EXTT8=
EXTT9=
EXTT10=
EXTT11=
PLAYORDER=
